<mxfile host="app.diagrams.net" agent="Mozilla/5.0 (Windows NT 10.0; Win64; x64) AppleWebKit/537.36 (KHTML, like Gecko) Chrome/134.0.0.0 Safari/537.36" version="26.1.1">
  <diagram name="PÃ¡gina-1" id="apVpj9gGX5sai8kFUjWN">
    <mxGraphModel dx="1750" dy="928" grid="1" gridSize="10" guides="1" tooltips="1" connect="1" arrows="1" fold="1" page="1" pageScale="1" pageWidth="827" pageHeight="1169" math="0" shadow="0">
      <root>
        <mxCell id="0" />
        <mxCell id="1" parent="0" />
        <mxCell id="SM_GJE4LLyI0csKoKRmV-1" value="INICIO" style="strokeWidth=2;html=1;shape=mxgraph.flowchart.start_1;whiteSpace=wrap;fillColor=#d5e8d4;strokeColor=#82b366;" vertex="1" parent="1">
          <mxGeometry x="364" y="10" width="100" height="60" as="geometry" />
        </mxCell>
        <mxCell id="SM_GJE4LLyI0csKoKRmV-2" value="SALARIO_BASE" style="html=1;strokeWidth=2;shape=manualInput;whiteSpace=wrap;rounded=1;size=26;arcSize=11;fillColor=#dae8fc;strokeColor=#6c8ebf;" vertex="1" parent="1">
          <mxGeometry x="364" y="80" width="100" height="60" as="geometry" />
        </mxCell>
        <mxCell id="SM_GJE4LLyI0csKoKRmV-3" style="edgeStyle=orthogonalEdgeStyle;rounded=0;orthogonalLoop=1;jettySize=auto;html=1;exitX=0.5;exitY=1;exitDx=0;exitDy=0;entryX=0.5;entryY=0;entryDx=0;entryDy=0;" edge="1" parent="1" source="SM_GJE4LLyI0csKoKRmV-4" target="SM_GJE4LLyI0csKoKRmV-8">
          <mxGeometry relative="1" as="geometry" />
        </mxCell>
        <mxCell id="SM_GJE4LLyI0csKoKRmV-4" value="FATURAMENTO" style="html=1;strokeWidth=2;shape=manualInput;whiteSpace=wrap;rounded=1;size=26;arcSize=11;fillColor=#dae8fc;strokeColor=#6c8ebf;" vertex="1" parent="1">
          <mxGeometry x="364" y="160" width="100" height="60" as="geometry" />
        </mxCell>
        <mxCell id="SM_GJE4LLyI0csKoKRmV-5" style="edgeStyle=orthogonalEdgeStyle;rounded=0;orthogonalLoop=1;jettySize=auto;html=1;exitX=0.5;exitY=1;exitDx=0;exitDy=0;exitPerimeter=0;entryX=0.5;entryY=0.167;entryDx=0;entryDy=0;entryPerimeter=0;" edge="1" parent="1" source="SM_GJE4LLyI0csKoKRmV-1" target="SM_GJE4LLyI0csKoKRmV-2">
          <mxGeometry relative="1" as="geometry" />
        </mxCell>
        <mxCell id="SM_GJE4LLyI0csKoKRmV-6" style="edgeStyle=orthogonalEdgeStyle;rounded=0;orthogonalLoop=1;jettySize=auto;html=1;exitX=0.5;exitY=1;exitDx=0;exitDy=0;entryX=0.5;entryY=0.167;entryDx=0;entryDy=0;entryPerimeter=0;" edge="1" parent="1" source="SM_GJE4LLyI0csKoKRmV-2" target="SM_GJE4LLyI0csKoKRmV-4">
          <mxGeometry relative="1" as="geometry" />
        </mxCell>
        <mxCell id="SM_GJE4LLyI0csKoKRmV-7" style="edgeStyle=orthogonalEdgeStyle;rounded=0;orthogonalLoop=1;jettySize=auto;html=1;exitX=0.5;exitY=1;exitDx=0;exitDy=0;entryX=0.5;entryY=0;entryDx=0;entryDy=0;" edge="1" parent="1" source="SM_GJE4LLyI0csKoKRmV-8">
          <mxGeometry relative="1" as="geometry">
            <mxPoint x="414" y="340" as="targetPoint" />
          </mxGeometry>
        </mxCell>
        <mxCell id="SM_GJE4LLyI0csKoKRmV-8" value="SALARIO_NOVO = 0" style="rounded=0;whiteSpace=wrap;html=1;fillColor=#f5f5f5;fontColor=#333333;strokeColor=#666666;" vertex="1" parent="1">
          <mxGeometry x="354" y="250" width="120" height="60" as="geometry" />
        </mxCell>
        <mxCell id="SM_GJE4LLyI0csKoKRmV-11" style="edgeStyle=orthogonalEdgeStyle;rounded=0;orthogonalLoop=1;jettySize=auto;html=1;exitX=1;exitY=0.5;exitDx=0;exitDy=0;entryX=0.5;entryY=0;entryDx=0;entryDy=0;" edge="1" parent="1" source="SM_GJE4LLyI0csKoKRmV-9" target="SM_GJE4LLyI0csKoKRmV-10">
          <mxGeometry relative="1" as="geometry" />
        </mxCell>
        <mxCell id="SM_GJE4LLyI0csKoKRmV-12" value="S" style="edgeLabel;html=1;align=center;verticalAlign=middle;resizable=0;points=[];" vertex="1" connectable="0" parent="SM_GJE4LLyI0csKoKRmV-11">
          <mxGeometry x="-0.1571" y="3" relative="1" as="geometry">
            <mxPoint as="offset" />
          </mxGeometry>
        </mxCell>
        <mxCell id="SM_GJE4LLyI0csKoKRmV-15" style="edgeStyle=orthogonalEdgeStyle;rounded=0;orthogonalLoop=1;jettySize=auto;html=1;exitX=0.5;exitY=1;exitDx=0;exitDy=0;entryX=0.5;entryY=0;entryDx=0;entryDy=0;" edge="1" parent="1" source="SM_GJE4LLyI0csKoKRmV-9" target="SM_GJE4LLyI0csKoKRmV-13">
          <mxGeometry relative="1" as="geometry" />
        </mxCell>
        <mxCell id="SM_GJE4LLyI0csKoKRmV-16" value="N" style="edgeLabel;html=1;align=center;verticalAlign=middle;resizable=0;points=[];" vertex="1" connectable="0" parent="SM_GJE4LLyI0csKoKRmV-15">
          <mxGeometry x="-0.3765" y="1" relative="1" as="geometry">
            <mxPoint as="offset" />
          </mxGeometry>
        </mxCell>
        <mxCell id="SM_GJE4LLyI0csKoKRmV-9" value="FATURAMENTO MAIOR QUE 5000" style="rhombus;whiteSpace=wrap;html=1;fillColor=#ffe6cc;strokeColor=#d79b00;" vertex="1" parent="1">
          <mxGeometry x="336" y="340" width="156" height="120" as="geometry" />
        </mxCell>
        <mxCell id="SM_GJE4LLyI0csKoKRmV-14" style="edgeStyle=orthogonalEdgeStyle;rounded=0;orthogonalLoop=1;jettySize=auto;html=1;exitX=0.5;exitY=1;exitDx=0;exitDy=0;entryX=1;entryY=0.5;entryDx=0;entryDy=0;" edge="1" parent="1" source="SM_GJE4LLyI0csKoKRmV-10" target="SM_GJE4LLyI0csKoKRmV-13">
          <mxGeometry relative="1" as="geometry" />
        </mxCell>
        <mxCell id="SM_GJE4LLyI0csKoKRmV-10" value="SALARIO_NOVO = SALARIO + 300" style="rounded=0;whiteSpace=wrap;html=1;fillColor=#f5f5f5;fontColor=#333333;strokeColor=#666666;" vertex="1" parent="1">
          <mxGeometry x="560" y="440" width="120" height="60" as="geometry" />
        </mxCell>
        <mxCell id="SM_GJE4LLyI0csKoKRmV-13" value="" style="ellipse;whiteSpace=wrap;html=1;aspect=fixed;fillColor=#f5f5f5;gradientColor=#b3b3b3;strokeColor=#666666;" vertex="1" parent="1">
          <mxGeometry x="394" y="540" width="40" height="40" as="geometry" />
        </mxCell>
        <mxCell id="SM_GJE4LLyI0csKoKRmV-17" value="SALARIO_BASE" style="strokeWidth=2;html=1;shape=mxgraph.flowchart.display;whiteSpace=wrap;fillColor=#e1d5e7;strokeColor=#9673a6;" vertex="1" parent="1">
          <mxGeometry x="364" y="620" width="100" height="60" as="geometry" />
        </mxCell>
        <mxCell id="SM_GJE4LLyI0csKoKRmV-18" style="edgeStyle=orthogonalEdgeStyle;rounded=0;orthogonalLoop=1;jettySize=auto;html=1;exitX=0.5;exitY=1;exitDx=0;exitDy=0;entryX=0.5;entryY=0;entryDx=0;entryDy=0;entryPerimeter=0;" edge="1" parent="1" source="SM_GJE4LLyI0csKoKRmV-13" target="SM_GJE4LLyI0csKoKRmV-17">
          <mxGeometry relative="1" as="geometry" />
        </mxCell>
        <mxCell id="SM_GJE4LLyI0csKoKRmV-19" value="SALARIO_NOVO" style="strokeWidth=2;html=1;shape=mxgraph.flowchart.display;whiteSpace=wrap;fillColor=#e1d5e7;strokeColor=#9673a6;" vertex="1" parent="1">
          <mxGeometry x="364" y="780" width="100" height="60" as="geometry" />
        </mxCell>
        <mxCell id="SM_GJE4LLyI0csKoKRmV-20" value="FATURAMENTO" style="strokeWidth=2;html=1;shape=mxgraph.flowchart.display;whiteSpace=wrap;fillColor=#e1d5e7;strokeColor=#9673a6;" vertex="1" parent="1">
          <mxGeometry x="364" y="700" width="100" height="60" as="geometry" />
        </mxCell>
        <mxCell id="SM_GJE4LLyI0csKoKRmV-21" style="edgeStyle=orthogonalEdgeStyle;rounded=0;orthogonalLoop=1;jettySize=auto;html=1;exitX=0.5;exitY=1;exitDx=0;exitDy=0;exitPerimeter=0;entryX=0.5;entryY=0;entryDx=0;entryDy=0;entryPerimeter=0;" edge="1" parent="1" source="SM_GJE4LLyI0csKoKRmV-17" target="SM_GJE4LLyI0csKoKRmV-20">
          <mxGeometry relative="1" as="geometry" />
        </mxCell>
        <mxCell id="SM_GJE4LLyI0csKoKRmV-22" style="edgeStyle=orthogonalEdgeStyle;rounded=0;orthogonalLoop=1;jettySize=auto;html=1;exitX=0.5;exitY=1;exitDx=0;exitDy=0;exitPerimeter=0;entryX=0.5;entryY=0;entryDx=0;entryDy=0;entryPerimeter=0;" edge="1" parent="1" source="SM_GJE4LLyI0csKoKRmV-20" target="SM_GJE4LLyI0csKoKRmV-19">
          <mxGeometry relative="1" as="geometry" />
        </mxCell>
        <mxCell id="SM_GJE4LLyI0csKoKRmV-23" value="FIM" style="strokeWidth=2;html=1;shape=mxgraph.flowchart.start_1;whiteSpace=wrap;fillColor=#d5e8d4;strokeColor=#82b366;" vertex="1" parent="1">
          <mxGeometry x="364" y="880" width="100" height="60" as="geometry" />
        </mxCell>
        <mxCell id="SM_GJE4LLyI0csKoKRmV-24" style="edgeStyle=orthogonalEdgeStyle;rounded=0;orthogonalLoop=1;jettySize=auto;html=1;exitX=0.5;exitY=1;exitDx=0;exitDy=0;exitPerimeter=0;entryX=0.5;entryY=0;entryDx=0;entryDy=0;entryPerimeter=0;" edge="1" parent="1" source="SM_GJE4LLyI0csKoKRmV-19" target="SM_GJE4LLyI0csKoKRmV-23">
          <mxGeometry relative="1" as="geometry" />
        </mxCell>
      </root>
    </mxGraphModel>
  </diagram>
</mxfile>
